<svg width="32" height="32" viewBox="0 0 32 32" fill="none" xmlns="http://www.w3.org/2000/svg">
<rect width="32" height="32" fill="url(#paint0_linear_807_4)"/>
<path d="M23 10.5C21.35 10.5 20 10.05 20 9.5V10.5C20 11.05 21.35 11.5 23 11.5C24.65 11.5 26 11.05 26 10.5V9.5C26 10.05 24.65 10.5 23 10.5Z" fill="#FFA000"/>
<path d="M23 9C21.35 9 20 8.55 20 8V9C20 9.55 21.35 10 23 10C24.65 10 26 9.55 26 9V8C26 8.55 24.65 9 23 9ZM23 12C21.35 12 20 11.55 20 11V12C20 12.55 21.35 13 23 13C24.65 13 26 12.55 26 12V11C26 11.55 24.65 12 23 12Z" fill="#FFA000"/>
<path d="M23 13.5C21.35 13.5 20 13.05 20 12.5V13.5C20 14.05 21.35 14.5 23 14.5C24.65 14.5 26 14.05 26 13.5V12.5C26 13.05 24.65 13.5 23 13.5Z" fill="#FFA000"/>
<path d="M23 15C21.35 15 20 14.55 20 14V15C20 15.55 21.35 16 23 16C24.65 16 26 15.55 26 15V14C26 14.55 24.65 15 23 15Z" fill="#FFA000"/>
<path d="M23 16.5C21.35 16.5 20 16.05 20 15.5V16.5C20 17.05 21.35 17.5 23 17.5C24.65 17.5 26 17.05 26 16.5V15.5C26 16.05 24.65 16.5 23 16.5Z" fill="#FFA000"/>
<path d="M23 18C21.35 18 20 17.55 20 17V18C20 18.55 21.35 19 23 19C24.65 19 26 18.55 26 18V17C26 17.55 24.65 18 23 18Z" fill="#FFA000"/>
<path d="M23 19.5C21.35 19.5 20 19.05 20 18.5V19.5C20 20.05 21.35 20.5 23 20.5C24.65 20.5 26 20.05 26 19.5V18.5C26 19.05 24.65 19.5 23 19.5Z" fill="#FFA000"/>
<path d="M23 21C21.35 21 20 20.55 20 20V21C20 21.55 21.35 22 23 22C24.65 22 26 21.55 26 21V20C26 20.55 24.65 21 23 21Z" fill="#FFA000"/>
<path d="M23 22.5C21.35 22.5 20 22.05 20 21.5V22.5C20 23.05 21.35 23.5 23 23.5C24.65 23.5 26 23.05 26 22.5V21.5C26 22.05 24.65 22.5 23 22.5Z" fill="#FFA000"/>
<path d="M23 24C21.35 24 20 23.55 20 23V24C20 24.55 21.35 25 23 25C24.65 25 26 24.55 26 24V23C26 23.55 24.65 24 23 24Z" fill="#FFA000"/>
<path d="M23 9C24.6569 9 26 8.55228 26 8C26 7.44772 24.6569 7 23 7C21.3431 7 20 7.44772 20 8C20 8.55228 21.3431 9 23 9Z" fill="#FFC107"/>
<path d="M23 10C21.6 10 20.45 9.7 20.1 9.25C20.05 9.35 20 9.4 20 9.5C20 10.05 21.35 10.5 23 10.5C24.65 10.5 26 10.05 26 9.5C26 9.4 25.95 9.35 25.9 9.25C25.55 9.7 24.4 10 23 10ZM23 11.5C21.6 11.5 20.45 11.2 20.1 10.75C20.05 10.85 20 10.9 20 11C20 11.55 21.35 12 23 12C24.65 12 26 11.55 26 11C26 10.9 25.95 10.85 25.9 10.75C25.55 11.2 24.4 11.5 23 11.5ZM23 13C21.6 13 20.45 12.7 20.1 12.25C20.05 12.35 20 12.4 20 12.5C20 13.05 21.35 13.5 23 13.5C24.65 13.5 26 13.05 26 12.5C26 12.4 25.95 12.35 25.9 12.25C25.55 12.7 24.4 13 23 13ZM23 14.5C21.6 14.5 20.45 14.2 20.1 13.75C20.05 13.85 20 13.9 20 14C20 14.55 21.35 15 23 15C24.65 15 26 14.55 26 14C26 13.9 25.95 13.85 25.9 13.75C25.55 14.2 24.4 14.5 23 14.5ZM23 16C21.6 16 20.45 15.7 20.1 15.25C20.05 15.35 20 15.4 20 15.5C20 16.05 21.35 16.5 23 16.5C24.65 16.5 26 16.05 26 15.5C26 15.4 25.95 15.35 25.9 15.25C25.55 15.7 24.4 16 23 16ZM23 17.5C21.6 17.5 20.45 17.2 20.1 16.75C20.05 16.85 20 16.9 20 17C20 17.55 21.35 18 23 18C24.65 18 26 17.55 26 17C26 16.9 25.95 16.85 25.9 16.75C25.55 17.2 24.4 17.5 23 17.5ZM23 19C21.6 19 20.45 18.7 20.1 18.25C20.05 18.35 20 18.4 20 18.5C20 19.05 21.35 19.5 23 19.5C24.65 19.5 26 19.05 26 18.5C26 18.4 25.95 18.35 25.9 18.25C25.55 18.7 24.4 19 23 19ZM23 20.5C21.6 20.5 20.45 20.2 20.1 19.75C20.05 19.85 20 19.9 20 20C20 20.55 21.35 21 23 21C24.65 21 26 20.55 26 20C26 19.9 25.95 19.85 25.9 19.75C25.55 20.2 24.4 20.5 23 20.5ZM23 22C21.6 22 20.45 21.7 20.1 21.25C20.05 21.35 20 21.4 20 21.5C20 22.05 21.35 22.5 23 22.5C24.65 22.5 26 22.05 26 21.5C26 21.4 25.95 21.35 25.9 21.25C25.55 21.7 24.4 22 23 22ZM23 23.5C21.6 23.5 20.45 23.2 20.1 22.75C20.05 22.85 20 22.9 20 23C20 23.55 21.35 24 23 24C24.65 24 26 23.55 26 23C26 22.9 25.95 22.85 25.9 22.75C25.55 23.2 24.4 23.5 23 23.5Z" fill="#FFC107"/>
<path d="M9 13.5C7.35 13.5 6 13.05 6 12.5V13.5C6 14.05 7.35 14.5 9 14.5C10.65 14.5 12 14.05 12 13.5V12.5C12 13.05 10.65 13.5 9 13.5Z" fill="#FFA000"/>
<path d="M9 12C7.35 12 6 11.55 6 11V12C6 12.55 7.35 13 9 13C10.65 13 12 12.55 12 12V11C12 11.55 10.65 12 9 12ZM9 15C7.35 15 6 14.55 6 14V15C6 15.55 7.35 16 9 16C10.65 16 12 15.55 12 15V14C12 14.55 10.65 15 9 15Z" fill="#FFA000"/>
<path d="M9 16.5C7.35 16.5 6 16.05 6 15.5V16.5C6 17.05 7.35 17.5 9 17.5C10.65 17.5 12 17.05 12 16.5V15.5C12 16.05 10.65 16.5 9 16.5Z" fill="#FFA000"/>
<path d="M9 18C7.35 18 6 17.55 6 17V18C6 18.55 7.35 19 9 19C10.65 19 12 18.55 12 18V17C12 17.55 10.65 18 9 18Z" fill="#FFA000"/>
<path d="M9 19.5C7.35 19.5 6 19.05 6 18.5V19.5C6 20.05 7.35 20.5 9 20.5C10.65 20.5 12 20.05 12 19.5V18.5C12 19.05 10.65 19.5 9 19.5Z" fill="#FFA000"/>
<path d="M9 21C7.35 21 6 20.55 6 20V21C6 21.55 7.35 22 9 22C10.65 22 12 21.55 12 21V20C12 20.55 10.65 21 9 21Z" fill="#FFA000"/>
<path d="M9 22.5C7.35 22.5 6 22.05 6 21.5V22.5C6 23.05 7.35 23.5 9 23.5C10.65 23.5 12 23.05 12 22.5V21.5C12 22.05 10.65 22.5 9 22.5Z" fill="#FFA000"/>
<path d="M9 24C7.35 24 6 23.55 6 23V24C6 24.55 7.35 25 9 25C10.65 25 12 24.55 12 24V23C12 23.55 10.65 24 9 24Z" fill="#FFA000"/>
<path d="M9 12C10.6569 12 12 11.5523 12 11C12 10.4477 10.6569 10 9 10C7.34315 10 6 10.4477 6 11C6 11.5523 7.34315 12 9 12Z" fill="#FFC107"/>
<path d="M9 13C7.6 13 6.45 12.7 6.1 12.25C6.05 12.35 6 12.4 6 12.5C6 13.05 7.35 13.5 9 13.5C10.65 13.5 12 13.05 12 12.5C12 12.4 11.95 12.35 11.9 12.25C11.55 12.7 10.4 13 9 13ZM9 14.5C7.6 14.5 6.45 14.2 6.1 13.75C6.05 13.85 6 13.9 6 14C6 14.55 7.35 15 9 15C10.65 15 12 14.55 12 14C12 13.9 11.95 13.85 11.9 13.75C11.55 14.2 10.4 14.5 9 14.5ZM9 16C7.6 16 6.45 15.7 6.1 15.25C6.05 15.35 6 15.4 6 15.5C6 16.05 7.35 16.5 9 16.5C10.65 16.5 12 16.05 12 15.5C12 15.4 11.95 15.35 11.9 15.25C11.55 15.7 10.4 16 9 16ZM9 17.5C7.6 17.5 6.45 17.2 6.1 16.75C6.05 16.85 6 16.9 6 17C6 17.55 7.35 18 9 18C10.65 18 12 17.55 12 17C12 16.9 11.95 16.85 11.9 16.75C11.55 17.2 10.4 17.5 9 17.5ZM9 19C7.6 19 6.45 18.7 6.1 18.25C6.05 18.35 6 18.4 6 18.5C6 19.05 7.35 19.5 9 19.5C10.65 19.5 12 19.05 12 18.5C12 18.4 11.95 18.35 11.9 18.25C11.55 18.7 10.4 19 9 19ZM9 20.5C7.6 20.5 6.45 20.2 6.1 19.75C6.05 19.85 6 19.9 6 20C6 20.55 7.35 21 9 21C10.65 21 12 20.55 12 20C12 19.9 11.95 19.85 11.9 19.75C11.55 20.2 10.4 20.5 9 20.5ZM9 22C7.6 22 6.45 21.7 6.1 21.25C6.05 21.35 6 21.4 6 21.5C6 22.05 7.35 22.5 9 22.5C10.65 22.5 12 22.05 12 21.5C12 21.4 11.95 21.35 11.9 21.25C11.55 21.7 10.4 22 9 22ZM9 23.5C7.6 23.5 6.45 23.2 6.1 22.75C6.05 22.85 6 22.9 6 23C6 23.55 7.35 24 9 24C10.65 24 12 23.55 12 23C12 22.9 11.95 22.85 11.9 22.75C11.55 23.2 10.4 23.5 9 23.5Z" fill="#FFC107"/>
<path d="M16 18C14.35 18 13 17.55 13 17V18C13 18.55 14.35 19 16 19C17.65 19 19 18.55 19 18V17C19 17.55 17.65 18 16 18Z" fill="#FFA000"/>
<path d="M16 16.5C14.35 16.5 13 16.05 13 15.5V16.5C13 17.05 14.35 17.5 16 17.5C17.65 17.5 19 17.05 19 16.5V15.5C19 16.05 17.65 16.5 16 16.5ZM16 19.5C14.35 19.5 13 19.05 13 18.5V19.5C13 20.05 14.35 20.5 16 20.5C17.65 20.5 19 20.05 19 19.5V18.5C19 19.05 17.65 19.5 16 19.5Z" fill="#FFA000"/>
<path d="M16 21C14.35 21 13 20.55 13 20V21C13 21.55 14.35 22 16 22C17.65 22 19 21.55 19 21V20C19 20.55 17.65 21 16 21Z" fill="#FFA000"/>
<path d="M16 22.5C14.35 22.5 13 22.05 13 21.5V22.5C13 23.05 14.35 23.5 16 23.5C17.65 23.5 19 23.05 19 22.5V21.5C19 22.05 17.65 22.5 16 22.5Z" fill="#FFA000"/>
<path d="M16 24C14.35 24 13 23.55 13 23V24C13 24.55 14.35 25 16 25C17.65 25 19 24.55 19 24V23C19 23.55 17.65 24 16 24Z" fill="#FFA000"/>
<path d="M16 16.5C17.6569 16.5 19 16.0523 19 15.5C19 14.9477 17.6569 14.5 16 14.5C14.3431 14.5 13 14.9477 13 15.5C13 16.0523 14.3431 16.5 16 16.5Z" fill="#FFC107"/>
<path d="M16 17.5C14.6 17.5 13.45 17.2 13.1 16.75C13.05 16.85 13 16.9 13 17C13 17.55 14.35 18 16 18C17.65 18 19 17.55 19 17C19 16.9 18.95 16.85 18.9 16.75C18.55 17.2 17.4 17.5 16 17.5ZM16 19C14.6 19 13.45 18.7 13.1 18.25C13.05 18.35 13 18.4 13 18.5C13 19.05 14.35 19.5 16 19.5C17.65 19.5 19 19.05 19 18.5C19 18.4 18.95 18.35 18.9 18.25C18.55 18.7 17.4 19 16 19ZM16 20.5C14.6 20.5 13.45 20.2 13.1 19.75C13.05 19.85 13 19.9 13 20C13 20.55 14.35 21 16 21C17.65 21 19 20.55 19 20C19 19.9 18.95 19.85 18.9 19.75C18.55 20.2 17.4 20.5 16 20.5ZM16 22C14.6 22 13.45 21.7 13.1 21.25C13.05 21.35 13 21.4 13 21.5C13 22.05 14.35 22.5 16 22.5C17.65 22.5 19 22.05 19 21.5C19 21.4 18.95 21.35 18.9 21.25C18.55 21.7 17.4 22 16 22ZM16 23.5C14.6 23.5 13.45 23.2 13.1 22.75C13.05 22.85 13 22.9 13 23C13 23.55 14.35 24 16 24C17.65 24 19 23.55 19 23C19 22.9 18.95 22.85 18.9 22.75C18.55 23.2 17.4 23.5 16 23.5Z" fill="#FFC107"/>
<defs>
<linearGradient id="paint0_linear_807_4" x1="0" y1="0" x2="32" y2="32" gradientUnits="userSpaceOnUse">
<stop stop-color="#C3DE97"/>
<stop offset="0.295" stop-color="#B2D179"/>
<stop offset="0.66" stop-color="#73A757"/>
<stop offset="1" stop-color="#B5E93D"/>
</linearGradient>
</defs>
</svg>
